# xmcd
#
# Track frame offsets:
#	182
#	12312
#	25650
#	35182
#	46885
#	62062
#	76535
#	89122
#	104055
#	118775
#	137315
#	148327
#	164280
#	181672
#	200647
#	216690
#	237065
#	255860
#	276570
#	292587
#	309145
#	322797
#	341290
#
# Disc length: 4730
#
# Revision: 1
# Processed by: cddbd v1.5.1PL0 Copyright (c) Steve Scherf et al.
# Submitted via: ExactAudioCopy v0.90a11
# Normalized: r0:DSETVAR1
#
DISCID=42127817
DTITLE=Various Artist - Nashville Classics - '80s
DYEAR=1900
DGENRE=
TTITLE0=Ronnie Milsap - My Heart
TTITLE1=Alabama - Tennessee River
TTITLE2=Waylon Jennings - Good Ol' Boys
TTITLE3=Dolly Parton - 9 To 5
TTITLE4=Steve Wariner - All The Roads Lead To You
TTITLE5=Razzy Bailey - She Left Love All Over Me
TTITLE6=Charley Pride - Mountain Of Love
TTITLE7=Sylvia - Nobody
TTITLE8=Jerry Reed - She Got The Goldmine
TTITLE9=Earl Thomas Conley - Somewhere Between Right And Wrong
TTITLE10=Eddy Raven - I Got Mexico
TTITLE11=Dolly Parton - Tennessee Homesick Blues
TTITLE12=Michael Johnson - The Moon Is Still Over Her Shoulder
TTITLE13=K T Oslin - '80s Ladies
TTITLE14=Vince Gill - Cinderella
TTITLE15=Foster and Lloyd - Crazy Over You
TTITLE16=Jo-El Sonnier - Tear Stained Letter
TTITLE17=Restless Heart - Blues Eyes In Texas
TTITLE18=Keith Whitley - I'm No Stranger To The Rain
TTITLE19=Lorrie Morgan - Dear Me
TTITLE20=Clint Black - A Better Man
TTITLE21=Baillie and THe Boys - Heart Of Stone
TTITLE22=Alabama - High Cotton
EXTD=
EXTT0=
EXTT1=
EXTT2=
EXTT3=
EXTT4=
EXTT5=
EXTT6=
EXTT7=
EXTT8=
EXTT9=
EXTT10=
EXTT11=
EXTT12=
EXTT13=
EXTT14=
EXTT15=
EXTT16=
EXTT17=
EXTT18=
EXTT19=
EXTT20=
EXTT21=
EXTT22=
PLAYORDER=
